<svg xmlns="http://www.w3.org/2000/svg" xmlns:xlink="http://www.w3.org/1999/xlink" viewBox="0 0 1024 1024"><defs><path id="a" d="M575.506 431.266a85.14 85.14 0 0 0-.19.86c-.866 4.02-1.508 8.356-1.79 12.388.005-.063.001.055.002.291 0 .442.017.983.054 1.594.096 1.589.307 3.371.64 5.217.814 4.5 2.24 8.758 4.208 12.28 4.579 8.192 11.726 12.495 26.769 12.495 1.05 0 2.79-.18 4.824-.587a43.545 43.545 0 0 0 8.274-2.559c6.727-2.83 12.633-7.211 17.37-13.404 6.18-8.076 13.298-24.43 18.013-45.123 6.31-27.69 7.85-60.157 3.263-96.29C635.674 173.068 510.428 63.9 362 63.9 197.366 63.9 63.9 197.365 63.9 362c0 34.326 4.563 64.25 12.886 90.955 6.405 20.549 14.486 37.853 25.113 55.813 3.016 5.098 8.298 14.228 15.901 27.485a31.9 31.9 0 0 1 3.982 19.822l-9.223 73.886 74.4-16.29a31.9 31.9 0 0 1 22.383 3.315c7.619 4.257 13.039 7.256 16.185 8.958C268.83 649.366 317.51 660.1 362 660.1c40.11 0 79.062-7.909 115.206-23.07 16.247-6.814 34.942.833 41.756 17.08 6.815 16.246-.831 34.94-17.078 41.755C457.959 714.29 410.623 723.9 362 723.9c-54.505 0-113.54-13.018-166.826-41.838a814.184 814.184 0 0 1-6.357-3.486L86.698 700.935a35.2 35.2 0 0 1-11.889.543c-19.29-2.408-32.977-19.998-30.568-39.289l12.911-103.428c-4.667-8.108-8.062-13.956-10.161-17.503-12.98-21.936-23.104-43.617-31.115-69.32C5.64 439.095.1 402.77.1 362 .1 162.13 162.13.1 362 .1c180.322 0 332.423 132.674 358.118 309.421.027.182.052.364.075.546 5.576 43.64 3.689 83.735-4.308 118.826-6.635 29.115-17.389 53.824-29.546 69.714-11.77 15.385-26.7 26.46-43.298 33.445-12.924 5.438-26.422 8.14-37.842 8.14-31.823 0-56.698-11.68-73.24-31.663C490.81 556.216 429.93 586.4 362 586.4c-123.932 0-224.4-100.468-224.4-224.4S238.068 137.6 362 137.6 586.4 238.068 586.4 362c0 24.172-3.822 47.45-10.894 69.266zm-58.527-26.995c3.665-13.469 5.621-27.641 5.621-42.271 0-88.696-71.904-160.6-160.6-160.6S201.4 273.304 201.4 362 273.304 522.6 362 522.6c70.664 0 130.67-45.64 152.148-109.05.878-3.446 1.836-6.598 2.83-9.279zM613.9 607.298c0 17.62-14.279 31.902-31.9 31.902s-31.9-14.282-31.9-31.902c0-17.616 14.279-31.898 31.9-31.898s31.9 14.282 31.9 31.898z"/><linearGradient id="b" x1=".894%" x2="80.098%" y1="99.106%" y2="19.902%"><stop offset="15.966%" stop-color="#6800FF"/><stop offset="98.903%" stop-color="#AE40C4"/></linearGradient></defs><g fill="none" fill-rule="evenodd"><path fill="#FFF" d="M512 0c282.77 0 512 229.23 512 512s-229.23 512-512 512S0 794.77 0 512 229.23 0 512 0z"/><g transform="translate(150 150)"><mask id="c" fill="#fff"><use xlink:href="#a"/></mask><use fill="#FFFFFE" fill-rule="nonzero" xlink:href="#a"/><path fill="url(#b)" d="M362-150c282.77 0 512 229.23 512 512S644.77 874 362 874s-512-229.23-512-512S79.23-150 362-150z" mask="url(#c)"/></g></g></svg>